<mxfile host="app.diagrams.net" agent="Mozilla/5.0 (Windows NT 10.0; Win64; x64) AppleWebKit/537.36 (KHTML, like Gecko) Chrome/131.0.0.0 Safari/537.36" version="24.8.9">
  <diagram name="Side-1" id="hJMMNetJhG3h-vPWhNuW">
    <mxGraphModel dx="819" dy="446" grid="1" gridSize="1" guides="1" tooltips="1" connect="1" arrows="1" fold="1" page="1" pageScale="1" pageWidth="827" pageHeight="1169" math="0" shadow="0">
      <root>
        <mxCell id="0" />
        <mxCell id="1" parent="0" />
        <mxCell id="sEpqqiszVUIu4HvW600L-32" style="edgeStyle=orthogonalEdgeStyle;rounded=0;orthogonalLoop=1;jettySize=auto;html=1;exitX=1;exitY=0.5;exitDx=0;exitDy=0;exitPerimeter=0;endArrow=none;endFill=0;" edge="1" parent="1" source="sEpqqiszVUIu4HvW600L-3">
          <mxGeometry relative="1" as="geometry">
            <mxPoint x="319.96153846153845" y="360" as="targetPoint" />
          </mxGeometry>
        </mxCell>
        <mxCell id="sEpqqiszVUIu4HvW600L-3" value="" style="pointerEvents=1;verticalLabelPosition=bottom;shadow=0;dashed=0;align=center;html=1;verticalAlign=top;shape=mxgraph.electrical.resistors.resistor_1;direction=south;" vertex="1" parent="1">
          <mxGeometry x="310" y="240" width="20" height="100" as="geometry" />
        </mxCell>
        <mxCell id="sEpqqiszVUIu4HvW600L-9" value="" style="pointerEvents=1;verticalLabelPosition=bottom;shadow=0;dashed=0;align=center;html=1;verticalAlign=top;shape=mxgraph.electrical.resistors.resistor_2;" vertex="1" parent="1">
          <mxGeometry x="70" y="156" width="100" height="20" as="geometry" />
        </mxCell>
        <mxCell id="sEpqqiszVUIu4HvW600L-29" style="edgeStyle=orthogonalEdgeStyle;rounded=0;orthogonalLoop=1;jettySize=auto;html=1;exitX=0;exitY=0.5;exitDx=0;exitDy=0;exitPerimeter=0;endArrow=none;endFill=0;" edge="1" parent="1" source="sEpqqiszVUIu4HvW600L-12">
          <mxGeometry relative="1" as="geometry">
            <mxPoint x="400" y="220" as="targetPoint" />
            <Array as="points">
              <mxPoint x="550" y="220" />
            </Array>
          </mxGeometry>
        </mxCell>
        <mxCell id="sEpqqiszVUIu4HvW600L-34" style="edgeStyle=orthogonalEdgeStyle;rounded=0;orthogonalLoop=1;jettySize=auto;html=1;exitX=1;exitY=0.5;exitDx=0;exitDy=0;exitPerimeter=0;endArrow=none;endFill=0;" edge="1" parent="1" source="sEpqqiszVUIu4HvW600L-12">
          <mxGeometry relative="1" as="geometry">
            <mxPoint x="400" y="360" as="targetPoint" />
            <Array as="points">
              <mxPoint x="550" y="360" />
            </Array>
          </mxGeometry>
        </mxCell>
        <mxCell id="sEpqqiszVUIu4HvW600L-12" value="" style="pointerEvents=1;verticalLabelPosition=bottom;shadow=0;dashed=0;align=center;html=1;verticalAlign=top;shape=mxgraph.electrical.capacitors.capacitor_1;direction=south;" vertex="1" parent="1">
          <mxGeometry x="520" y="240" width="60" height="100" as="geometry" />
        </mxCell>
        <mxCell id="sEpqqiszVUIu4HvW600L-14" value="" style="pointerEvents=1;verticalLabelPosition=bottom;shadow=0;dashed=0;align=center;html=1;verticalAlign=top;shape=mxgraph.electrical.inductors.inductor_5;" vertex="1" parent="1">
          <mxGeometry x="170" y="157" width="100" height="14" as="geometry" />
        </mxCell>
        <mxCell id="sEpqqiszVUIu4HvW600L-31" style="edgeStyle=orthogonalEdgeStyle;rounded=0;orthogonalLoop=1;jettySize=auto;html=1;exitX=1;exitY=0.5;exitDx=0;exitDy=0;exitPerimeter=0;endArrow=none;endFill=0;" edge="1" parent="1" source="sEpqqiszVUIu4HvW600L-15">
          <mxGeometry relative="1" as="geometry">
            <mxPoint x="73" y="360" as="targetPoint" />
            <Array as="points">
              <mxPoint x="400" y="360" />
            </Array>
          </mxGeometry>
        </mxCell>
        <mxCell id="sEpqqiszVUIu4HvW600L-15" value="" style="pointerEvents=1;verticalLabelPosition=bottom;shadow=0;dashed=0;align=center;html=1;verticalAlign=top;shape=mxgraph.electrical.resistors.resistor_2;direction=south;" vertex="1" parent="1">
          <mxGeometry x="390" y="240" width="20" height="100" as="geometry" />
        </mxCell>
        <mxCell id="sEpqqiszVUIu4HvW600L-16" value="Cable resistance" style="text;html=1;align=center;verticalAlign=middle;whiteSpace=wrap;rounded=0;" vertex="1" parent="1">
          <mxGeometry x="90" y="110" width="60" height="30" as="geometry" />
        </mxCell>
        <mxCell id="sEpqqiszVUIu4HvW600L-17" value="Cable Inductance" style="text;html=1;align=center;verticalAlign=middle;whiteSpace=wrap;rounded=0;" vertex="1" parent="1">
          <mxGeometry x="200" y="110" width="60" height="30" as="geometry" />
        </mxCell>
        <mxCell id="sEpqqiszVUIu4HvW600L-18" value="Cable/Air Capacitance" style="text;html=1;align=center;verticalAlign=middle;whiteSpace=wrap;rounded=0;" vertex="1" parent="1">
          <mxGeometry x="600" y="272.5" width="60" height="35" as="geometry" />
        </mxCell>
        <mxCell id="sEpqqiszVUIu4HvW600L-19" value="Cable/Air Dielectric&lt;br&gt;Losses" style="text;html=1;align=center;verticalAlign=middle;whiteSpace=wrap;rounded=0;" vertex="1" parent="1">
          <mxGeometry x="430" y="272.5" width="60" height="35" as="geometry" />
        </mxCell>
        <mxCell id="sEpqqiszVUIu4HvW600L-20" value="&lt;font style=&quot;font-size: 18px;&quot;&gt;Z&lt;sub&gt;DUT&lt;/sub&gt;&lt;/font&gt;" style="text;html=1;align=center;verticalAlign=middle;whiteSpace=wrap;rounded=0;" vertex="1" parent="1">
          <mxGeometry x="240" y="272.5" width="60" height="30" as="geometry" />
        </mxCell>
        <mxCell id="sEpqqiszVUIu4HvW600L-25" style="edgeStyle=orthogonalEdgeStyle;rounded=0;orthogonalLoop=1;jettySize=auto;html=1;exitX=0;exitY=0.5;exitDx=0;exitDy=0;exitPerimeter=0;entryX=1;entryY=0.645;entryDx=0;entryDy=0;entryPerimeter=0;endArrow=none;endFill=0;" edge="1" parent="1" source="sEpqqiszVUIu4HvW600L-15" target="sEpqqiszVUIu4HvW600L-14">
          <mxGeometry relative="1" as="geometry" />
        </mxCell>
        <mxCell id="sEpqqiszVUIu4HvW600L-26" style="edgeStyle=orthogonalEdgeStyle;rounded=0;orthogonalLoop=1;jettySize=auto;html=1;exitX=0;exitY=0.5;exitDx=0;exitDy=0;exitPerimeter=0;entryX=0;entryY=0.5;entryDx=0;entryDy=0;entryPerimeter=0;endArrow=none;endFill=0;" edge="1" parent="1" source="sEpqqiszVUIu4HvW600L-3" target="sEpqqiszVUIu4HvW600L-15">
          <mxGeometry relative="1" as="geometry" />
        </mxCell>
        <mxCell id="sEpqqiszVUIu4HvW600L-35" value="" style="ellipse;whiteSpace=wrap;html=1;aspect=fixed;fillColor=#000000;strokeColor=none;" vertex="1" parent="1">
          <mxGeometry x="397" y="217" width="6" height="6" as="geometry" />
        </mxCell>
        <mxCell id="sEpqqiszVUIu4HvW600L-39" value="" style="ellipse;whiteSpace=wrap;html=1;aspect=fixed;fillColor=#000000;strokeColor=none;" vertex="1" parent="1">
          <mxGeometry x="397" y="357" width="6" height="6" as="geometry" />
        </mxCell>
        <mxCell id="sEpqqiszVUIu4HvW600L-40" value="" style="ellipse;whiteSpace=wrap;html=1;aspect=fixed;fillColor=#000000;strokeColor=none;" vertex="1" parent="1">
          <mxGeometry x="317" y="357" width="6" height="6" as="geometry" />
        </mxCell>
        <mxCell id="sEpqqiszVUIu4HvW600L-43" value="" style="rounded=0;whiteSpace=wrap;html=1;fillColor=none;dashed=1;dashPattern=12 12;" vertex="1" parent="1">
          <mxGeometry x="79" y="94" width="192" height="111" as="geometry" />
        </mxCell>
        <mxCell id="sEpqqiszVUIu4HvW600L-44" value="" style="rounded=0;whiteSpace=wrap;html=1;fillColor=none;dashed=1;dashPattern=12 12;" vertex="1" parent="1">
          <mxGeometry x="379" y="237" width="301" height="111" as="geometry" />
        </mxCell>
        <mxCell id="sEpqqiszVUIu4HvW600L-45" value="&lt;font style=&quot;font-size: 18px;&quot;&gt;Z&lt;sub&gt;S&lt;/sub&gt;&lt;/font&gt;" style="text;html=1;align=center;verticalAlign=middle;whiteSpace=wrap;rounded=0;" vertex="1" parent="1">
          <mxGeometry x="138" y="52" width="60" height="30" as="geometry" />
        </mxCell>
        <mxCell id="sEpqqiszVUIu4HvW600L-46" value="&lt;font style=&quot;font-size: 18px;&quot;&gt;Z&lt;sub&gt;O&lt;/sub&gt;&lt;/font&gt;" style="text;html=1;align=center;verticalAlign=middle;whiteSpace=wrap;rounded=0;" vertex="1" parent="1">
          <mxGeometry x="562" y="205" width="60" height="30" as="geometry" />
        </mxCell>
        <mxCell id="sEpqqiszVUIu4HvW600L-47" value="" style="endArrow=classic;startArrow=classic;html=1;rounded=0;" edge="1" parent="1">
          <mxGeometry width="50" height="50" relative="1" as="geometry">
            <mxPoint x="55" y="359" as="sourcePoint" />
            <mxPoint x="55" y="169" as="targetPoint" />
          </mxGeometry>
        </mxCell>
        <mxCell id="sEpqqiszVUIu4HvW600L-48" value="&lt;font style=&quot;font-size: 18px;&quot;&gt;Z&lt;sub&gt;M&lt;/sub&gt;&lt;/font&gt;" style="text;html=1;align=center;verticalAlign=middle;whiteSpace=wrap;rounded=0;" vertex="1" parent="1">
          <mxGeometry x="3" y="248" width="60" height="30" as="geometry" />
        </mxCell>
      </root>
    </mxGraphModel>
  </diagram>
</mxfile>
